<svg xmlns="http://www.w3.org/2000/svg" xmlns:xlink="http://www.w3.org/1999/xlink" width="500" zoomAndPan="magnify" viewBox="0 0 375 374.999991" height="500" preserveAspectRatio="xMidYMid meet" version="1.0"><defs><clipPath id="0dedf193f8"><path d="M 0 0 L 375 0 L 375 373.5 L 0 373.5 Z M 0 0 " clip-rule="nonzero"/></clipPath></defs><g clip-path="url(#0dedf193f8)"><path fill="#ffffff" d="M 375.039062 187.457031 C 375.039062 83.917969 291.089844 0 187.535156 0 C 83.976562 0 0.0117188 83.917969 0.0117188 187.457031 C 0.0117188 275.363281 60.550781 349.136719 142.226562 369.394531 L 142.226562 244.742188 L 103.550781 244.742188 L 103.550781 187.457031 L 142.226562 187.457031 L 142.226562 162.773438 C 142.226562 98.976562 171.109375 69.398438 233.765625 69.398438 C 245.648438 69.398438 266.148438 71.722656 274.527344 74.0625 L 274.527344 125.980469 C 270.101562 125.507812 262.410156 125.273438 252.867188 125.273438 C 222.121094 125.273438 210.238281 136.917969 210.238281 167.183594 L 210.238281 187.441406 L 271.480469 187.441406 L 260.964844 244.726562 L 210.238281 244.726562 L 210.238281 373.515625 C 303.089844 362.3125 375.039062 283.269531 375.039062 187.441406 Z M 375.039062 187.457031 " fill-opacity="1" fill-rule="nonzero"/></g></svg>