<svg xmlns="http://www.w3.org/2000/svg" xmlns:xlink="http://www.w3.org/1999/xlink" width="500" zoomAndPan="magnify" viewBox="0 0 375 374.999991" height="500" preserveAspectRatio="xMidYMid meet" version="1.0"><defs><clipPath id="7e43914ced"><path d="M 0 56.8125 L 375 56.8125 L 375 318.5625 L 0 318.5625 Z M 0 56.8125 " clip-rule="nonzero"/></clipPath></defs><g clip-path="url(#7e43914ced)"><path fill="#ffffff" d="M 366.125 97.761719 C 361.757812 81.648438 349.5 69.109375 333.152344 64.738281 C 304.265625 56.8125 187.339844 56.8125 187.339844 56.8125 C 187.339844 56.8125 70.699219 56.8125 41.8125 64.71875 C 25.722656 69.089844 13.183594 81.648438 8.558594 97.761719 C 0.921875 126.691406 0.921875 187.546875 0.921875 187.546875 C 0.921875 187.546875 0.921875 248.421875 8.558594 277.632812 C 13.183594 293.464844 25.722656 306.28125 41.8125 310.65625 C 70.699219 318.5625 187.339844 318.5625 187.339844 318.5625 C 187.339844 318.5625 304.265625 318.5625 333.152344 310.65625 C 349.5 306.28125 361.757812 293.464844 366.125 277.632812 C 374.019531 248.421875 374.019531 187.566406 374.019531 187.566406 C 374.019531 187.566406 374.019531 126.691406 366.125 97.761719 Z M 150.28125 243.789062 L 150.28125 131.601562 L 247.027344 187.566406 Z M 150.28125 243.789062 " fill-opacity="1" fill-rule="nonzero"/></g></svg>